<?xml version="1.0" encoding="UTF-8" standalone="no"?>
<svg
   xmlns:dc="http://purl.org/dc/elements/1.1/"
   xmlns:cc="http://creativecommons.org/ns#"
   xmlns:rdf="http://www.w3.org/1999/02/22-rdf-syntax-ns#"
   xmlns:svg="http://www.w3.org/2000/svg"
   xmlns="http://www.w3.org/2000/svg"
   xmlns:sodipodi="http://sodipodi.sourceforge.net/DTD/sodipodi-0.dtd"
   xmlns:inkscape="http://www.inkscape.org/namespaces/inkscape"
   viewBox="0 0 330 200"
   version="1.1"
   id="svg224"
   sodipodi:docname="training_loss.svg">
  <metadata
     id="metadata230">
    <rdf:RDF>
      <cc:Work
         rdf:about="">
        <dc:format>image/svg+xml</dc:format>
        <dc:type
           rdf:resource="http://purl.org/dc/dcmitype/StillImage" />
      </cc:Work>
    </rdf:RDF>
  </metadata>
  <defs
     id="defs228" />
  <sodipodi:namedview
     pagecolor="#ffffff"
     bordercolor="#666666"
     borderopacity="1"
     objecttolerance="10"
     gridtolerance="10"
     guidetolerance="10"
     inkscape:pageopacity="0"
     inkscape:pageshadow="2"
     inkscape:window-width="640"
     inkscape:window-height="480"
     id="namedview226" />
  <g
     id="g222">
    <g
       id="g220">
      <g
         id="g46">
        <g
           id="g44">
          <g
             id="g20">
            <line
               x1="46"
               y1="178"
               x2="41"
               y2="178"
               style="visibility: inherit;"
               fill="rgb(0, 0, 0)"
               stroke="rgb(204, 204, 204)"
               stroke-width="1px"
               id="line2" />
            <line
               x1="46"
               y1="155.75"
               x2="41"
               y2="155.75"
               style="visibility: inherit;"
               fill="rgb(0, 0, 0)"
               stroke="rgb(204, 204, 204)"
               stroke-width="1px"
               id="line4" />
            <line
               x1="46"
               y1="133.5"
               x2="41"
               y2="133.5"
               style="visibility: inherit;"
               fill="rgb(0, 0, 0)"
               stroke="rgb(204, 204, 204)"
               stroke-width="1px"
               id="line6" />
            <line
               x1="46"
               y1="111.25"
               x2="41"
               y2="111.25"
               style="visibility: inherit;"
               fill="rgb(0, 0, 0)"
               stroke="rgb(204, 204, 204)"
               stroke-width="1px"
               id="line8" />
            <line
               x1="46"
               y1="89"
               x2="41"
               y2="89"
               style="visibility: inherit;"
               fill="rgb(0, 0, 0)"
               stroke="rgb(204, 204, 204)"
               stroke-width="1px"
               id="line10" />
            <line
               x1="46"
               y1="66.75"
               x2="41"
               y2="66.75"
               style="visibility: inherit;"
               fill="rgb(0, 0, 0)"
               stroke="rgb(204, 204, 204)"
               stroke-width="1px"
               id="line12" />
            <line
               x1="46"
               y1="44.5"
               x2="41"
               y2="44.5"
               style="visibility: inherit;"
               fill="rgb(0, 0, 0)"
               stroke="rgb(204, 204, 204)"
               stroke-width="1px"
               id="line14" />
            <line
               x1="46"
               y1="22.25"
               x2="41"
               y2="22.25"
               style="visibility: inherit;"
               fill="rgb(0, 0, 0)"
               stroke="rgb(204, 204, 204)"
               stroke-width="1px"
               id="line16" />
            <line
               x1="46"
               y1="0"
               x2="41"
               y2="0"
               style="visibility: inherit;"
               fill="rgb(0, 0, 0)"
               stroke="rgb(204, 204, 204)"
               stroke-width="1px"
               id="line18" />
          </g>
          <g
             transform="translate(36, 0)"
             id="g40">
            <text
               x="0"
               y="178"
               dx="0em"
               dy="0.3em"
               style="text-anchor: end; visibility: hidden; font-family: &quot;Helvetica Neue&quot;, sans-serif; font-size: 12px; font-weight: 200;"
               fill="rgb(50, 49, 63)"
               stroke="none"
               stroke-width="1px"
               id="text22">-20</text>
            <text
               x="0"
               y="155.75"
               dx="0em"
               dy="0.3em"
               style="text-anchor: end; visibility: inherit; font-family: &quot;Helvetica Neue&quot;, sans-serif; font-size: 12px; font-weight: 200;"
               fill="rgb(50, 49, 63)"
               stroke="none"
               stroke-width="1px"
               id="text24">0</text>
            <text
               x="0"
               y="133.5"
               dx="0em"
               dy="0.3em"
               style="text-anchor: end; visibility: hidden; font-family: &quot;Helvetica Neue&quot;, sans-serif; font-size: 12px; font-weight: 200;"
               fill="rgb(50, 49, 63)"
               stroke="none"
               stroke-width="1px"
               id="text26">20</text>
            <text
               x="0"
               y="111.25"
               dx="0em"
               dy="0.3em"
               style="text-anchor: end; visibility: inherit; font-family: &quot;Helvetica Neue&quot;, sans-serif; font-size: 12px; font-weight: 200;"
               fill="rgb(50, 49, 63)"
               stroke="none"
               stroke-width="1px"
               id="text28">40</text>
            <text
               x="0"
               y="89"
               dx="0em"
               dy="0.3em"
               style="text-anchor: end; visibility: hidden; font-family: &quot;Helvetica Neue&quot;, sans-serif; font-size: 12px; font-weight: 200;"
               fill="rgb(50, 49, 63)"
               stroke="none"
               stroke-width="1px"
               id="text30">60</text>
            <text
               x="0"
               y="66.75"
               dx="0em"
               dy="0.3em"
               style="text-anchor: end; visibility: inherit; font-family: &quot;Helvetica Neue&quot;, sans-serif; font-size: 12px; font-weight: 200;"
               fill="rgb(50, 49, 63)"
               stroke="none"
               stroke-width="1px"
               id="text32">80</text>
            <text
               x="0"
               y="44.5"
               dx="0em"
               dy="0.3em"
               style="text-anchor: end; visibility: hidden; font-family: &quot;Helvetica Neue&quot;, sans-serif; font-size: 12px; font-weight: 200;"
               fill="rgb(50, 49, 63)"
               stroke="none"
               stroke-width="1px"
               id="text34">100</text>
            <text
               x="0"
               y="22.25"
               dx="0em"
               dy="0.3em"
               style="text-anchor: end; visibility: inherit; font-family: &quot;Helvetica Neue&quot;, sans-serif; font-size: 12px; font-weight: 200;"
               fill="rgb(50, 49, 63)"
               stroke="none"
               stroke-width="1px"
               id="text36">120</text>
            <text
               x="0"
               y="0"
               dx="0em"
               dy="0.3em"
               style="text-anchor: end; visibility: hidden; font-family: &quot;Helvetica Neue&quot;, sans-serif; font-size: 12px; font-weight: 200;"
               fill="rgb(50, 49, 63)"
               stroke="none"
               stroke-width="1px"
               id="text38">140</text>
          </g>
          <line
             x1="46"
             y1="0"
             x2="46"
             y2="178"
             fill="rgb(0, 0, 0)"
             stroke="rgb(204, 204, 204)"
             stroke-width="1px"
             id="line42" />
        </g>
      </g>
      <g
         transform="translate(46, 0)"
         clip-path="url(#clip_0)"
         id="g153">
        <clipPath
           id="clip_0">
          <rect
             width="284"
             height="178"
             id="rect48" />
        </clipPath>
        <g
           id="g101">
          <g
             id="g99">
            <g
               id="g77">
              <line
                 x1="0"
                 y1="0"
                 x2="0"
                 y2="178"
                 fill="rgb(0, 0, 0)"
                 stroke="rgb(60, 60, 60)"
                 stroke-width="1px"
                 opacity="0.25"
                 id="line51" />
              <line
                 x1="23.666666666666664"
                 y1="0"
                 x2="23.666666666666664"
                 y2="178"
                 fill="rgb(0, 0, 0)"
                 stroke="rgb(60, 60, 60)"
                 stroke-width="1px"
                 opacity="0.25"
                 id="line53" />
              <line
                 x1="47.33333333333333"
                 y1="0"
                 x2="47.33333333333333"
                 y2="178"
                 fill="rgb(0, 0, 0)"
                 stroke="rgb(60, 60, 60)"
                 stroke-width="1px"
                 opacity="0.25"
                 id="line55" />
              <line
                 x1="71"
                 y1="0"
                 x2="71"
                 y2="178"
                 fill="rgb(0, 0, 0)"
                 stroke="rgb(60, 60, 60)"
                 stroke-width="1px"
                 opacity="0.25"
                 id="line57" />
              <line
                 x1="94.66666666666666"
                 y1="0"
                 x2="94.66666666666666"
                 y2="178"
                 fill="rgb(0, 0, 0)"
                 stroke="rgb(60, 60, 60)"
                 stroke-width="1px"
                 opacity="0.25"
                 id="line59" />
              <line
                 x1="118.33333333333334"
                 y1="0"
                 x2="118.33333333333334"
                 y2="178"
                 fill="rgb(0, 0, 0)"
                 stroke="rgb(60, 60, 60)"
                 stroke-width="1px"
                 opacity="0.25"
                 id="line61" />
              <line
                 x1="142"
                 y1="0"
                 x2="142"
                 y2="178"
                 fill="rgb(0, 0, 0)"
                 stroke="rgb(60, 60, 60)"
                 stroke-width="1px"
                 opacity="0.25"
                 id="line63" />
              <line
                 x1="165.66666666666669"
                 y1="0"
                 x2="165.66666666666669"
                 y2="178"
                 fill="rgb(0, 0, 0)"
                 stroke="rgb(60, 60, 60)"
                 stroke-width="1px"
                 opacity="0.25"
                 id="line65" />
              <line
                 x1="189.33333333333331"
                 y1="0"
                 x2="189.33333333333331"
                 y2="178"
                 fill="rgb(0, 0, 0)"
                 stroke="rgb(60, 60, 60)"
                 stroke-width="1px"
                 opacity="0.25"
                 id="line67" />
              <line
                 x1="213"
                 y1="0"
                 x2="213"
                 y2="178"
                 fill="rgb(0, 0, 0)"
                 stroke="rgb(60, 60, 60)"
                 stroke-width="1px"
                 opacity="0.25"
                 id="line69" />
              <line
                 x1="236.66666666666669"
                 y1="0"
                 x2="236.66666666666669"
                 y2="178"
                 fill="rgb(0, 0, 0)"
                 stroke="rgb(60, 60, 60)"
                 stroke-width="1px"
                 opacity="0.25"
                 id="line71" />
              <line
                 x1="260.3333333333333"
                 y1="0"
                 x2="260.3333333333333"
                 y2="178"
                 fill="rgb(0, 0, 0)"
                 stroke="rgb(60, 60, 60)"
                 stroke-width="1px"
                 opacity="0.25"
                 id="line73" />
              <line
                 x1="284"
                 y1="0"
                 x2="284"
                 y2="178"
                 fill="rgb(0, 0, 0)"
                 stroke="rgb(60, 60, 60)"
                 stroke-width="1px"
                 opacity="0.25"
                 id="line75" />
            </g>
            <g
               id="g97">
              <line
                 x1="0"
                 y1="178"
                 x2="284"
                 y2="178"
                 fill="rgb(0, 0, 0)"
                 stroke="rgb(60, 60, 60)"
                 stroke-width="1px"
                 opacity="0.25"
                 id="line79" />
              <line
                 x1="0"
                 y1="155.75"
                 x2="284"
                 y2="155.75"
                 fill="rgb(0, 0, 0)"
                 stroke="rgb(60, 60, 60)"
                 stroke-width="1px"
                 opacity="0.25"
                 id="line81" />
              <line
                 x1="0"
                 y1="133.5"
                 x2="284"
                 y2="133.5"
                 fill="rgb(0, 0, 0)"
                 stroke="rgb(60, 60, 60)"
                 stroke-width="1px"
                 opacity="0.25"
                 id="line83" />
              <line
                 x1="0"
                 y1="111.25"
                 x2="284"
                 y2="111.25"
                 fill="rgb(0, 0, 0)"
                 stroke="rgb(60, 60, 60)"
                 stroke-width="1px"
                 opacity="0.25"
                 id="line85" />
              <line
                 x1="0"
                 y1="89"
                 x2="284"
                 y2="89"
                 fill="rgb(0, 0, 0)"
                 stroke="rgb(60, 60, 60)"
                 stroke-width="1px"
                 opacity="0.25"
                 id="line87" />
              <line
                 x1="0"
                 y1="66.75"
                 x2="284"
                 y2="66.75"
                 fill="rgb(0, 0, 0)"
                 stroke="rgb(60, 60, 60)"
                 stroke-width="1px"
                 opacity="0.25"
                 id="line89" />
              <line
                 x1="0"
                 y1="44.5"
                 x2="284"
                 y2="44.5"
                 fill="rgb(0, 0, 0)"
                 stroke="rgb(60, 60, 60)"
                 stroke-width="1px"
                 opacity="0.25"
                 id="line91" />
              <line
                 x1="0"
                 y1="22.25"
                 x2="284"
                 y2="22.25"
                 fill="rgb(0, 0, 0)"
                 stroke="rgb(60, 60, 60)"
                 stroke-width="1px"
                 opacity="0.25"
                 id="line93" />
              <line
                 x1="0"
                 y1="0"
                 x2="284"
                 y2="0"
                 fill="rgb(0, 0, 0)"
                 stroke="rgb(60, 60, 60)"
                 stroke-width="1px"
                 opacity="0.25"
                 id="line95" />
            </g>
          </g>
        </g>
        <g
           id="g107">
          <g
             id="g105">
            <line
               x1="0"
               y1="155.75"
               x2="284"
               y2="155.75"
               fill="rgb(0, 0, 0)"
               stroke="rgb(153, 153, 153)"
               stroke-width="1.5px"
               id="line103" />
          </g>
        </g>
        <g
           id="g113">
          <g
             id="g111">
            <line
               x1="23.666666666666664"
               y1="0"
               x2="23.666666666666664"
               y2="178"
               fill="rgb(0, 0, 0)"
               stroke="rgb(153, 153, 153)"
               stroke-width="1.5px"
               id="line109" />
          </g>
        </g>
        <g
           id="g151">
          <g
             id="g131">
            <g
               id="g129">
              <g
                 id="g127">
                <g
                   id="g117">
                  <path
                     stroke="rgb(204, 51, 17)"
                     stroke-width="2px"
                     d="M23.666666666666664,135.3507157087326L23.666666666666664,134.67409604489802L23.666666666666664,133.17184069302618L23.666666666666664,134.58561702344346L23.666666666666664,132.62042768514462L26.03333333333333,130.59443674701177L28.400000000000002,129.552146122362L30.76666666666667,127.20111254879117L33.13333333333333,125.20871467424809L35.5,123.78754634020683L37.86666666666667,122.33521516066872L40.233333333333334,118.9827969130907L42.6,117.51633206448372L44.96666666666666,114.58488240376147L47.33333333333333,112.57651998384829L49.699999999999996,108.36981703386166L52.06666666666666,107.50780798209249L54.43333333333334,108.14249554402573L56.800000000000004,105.67051064929663L59.16666666666667,101.44005891741956L61.53333333333334,97.7226035314988L63.9,97.02020614454663L66.26666666666667,96.77598804911001L68.63333333333334,92.33725671069953L71,87.94796410612815L73.36666666666667,82.32625201310134L75.73333333333333,80.44768917317032L78.10000000000001,80.44654204628858L80.46666666666667,79.70300986897499L82.83333333333334,81.21255263877252L85.2,79.6510557367965L87.56666666666668,80.08931145547284L89.93333333333332,77.56468969614842L92.3,76.14917529599276L94.66666666666666,77.92617204011371L97.03333333333333,75.12662944183562L99.39999999999999,70.77468010704071L101.76666666666667,69.5382940825827L104.13333333333333,68.40090163317285L106.5,66.80953179961482L108.86666666666667,66.03059544480577L111.23333333333333,65.18877661614876L113.60000000000001,61.56284917481908L115.96666666666667,62.09299198331581L118.33333333333334,62.07536870683337L120.7,59.155302362528744L123.06666666666668,57.26417968557391L125.43333333333332,56.08524780918164L127.8,55.57359810261636L130.16666666666666,55.590030443601194L132.53333333333333,54.89222265000744L134.9,54.25305125662857L137.26666666666668,54.51458656757623L139.63333333333333,55.25631717186977L142,53.470407353291634L144.36666666666665,53.84626918461916L146.73333333333335,53.32087933914053L149.1,53.98603605685355L151.46666666666667,53.60493038807938L153.83333333333331,52.82175526806489L156.20000000000002,53.81188082807529L158.56666666666666,54.08882847853464L160.93333333333334,55.411510893273146L163.29999999999998,58.13077269349564L165.66666666666669,60.3306798407678L168.03333333333333,64.02229160959986L170.4,66.46727877435367L172.76666666666665,68.75012590871621L175.13333333333335,68.50900086871607L177.5,70.4700872201432L179.86666666666665,70.74959917656834L182.23333333333335,70.6410724102989L184.6,67.95811497327897L186.96666666666667,66.06931241963633L189.33333333333331,63.73273624786333L191.70000000000002,61.763509928039284L194.06666666666666,60.08011672189926L196.43333333333334,58.933459361142496L198.79999999999998,56.63028592094574L201.16666666666669,55.391644071488315L203.53333333333333,54.62529772218987L205.9,53.30431754170016L208.26666666666665,53.36499466167781L210.63333333333335,53.75830538312731L213,53.35009225392422L215.36666666666665,53.83279804339455L217.73333333333335,53.95002272099522L220.1,54.71816880685249L222.46666666666667,54.70768347252704L224.83333333333331,55.10172319691954L227.20000000000002,56.229070493469095L229.56666666666666,56.378158352905174L231.93333333333334,57.16099516280511L234.29999999999998,57.68077129201902L236.66666666666669,59.60733389184958L239.03333333333333,61.03387295321278L241.4,62.98663148829729L243.76666666666665,65.06902036636703L246.13333333333335,66.50297292691249L248.5,67.1120711554395L250.86666666666665,67.5220667594258L253.23333333333335,66.99813114604855L255.6,65.65352578998507L257.96666666666664,63.67568046117367"
                     style="fill: none;"
                     fill="none"
                     id="path115" />
                </g>
                <g
                   id="g121">
                  <path
                     stroke="rgb(0, 119, 187)"
                     stroke-width="2px"
                     d="M23.666666666666664,137.90337705612183L26.03333333333333,135.2536042034626L28.400000000000002,134.01828070076144L30.76666666666667,131.25308801584384L33.13333333333333,125.81827399715792L35.5,123.95577459847183L37.86666666666667,122.59426734240513L40.233333333333334,120.50470204801024L42.6,119.11486777705184L44.96666666666666,117.83751544078217L47.33333333333333,116.62475621450957L49.699999999999996,115.41162500868914L52.06666666666666,114.7030293770953L54.43333333333334,111.42642292607803L56.800000000000004,108.3073465404623L59.16666666666667,106.74713221463789L61.53333333333334,105.95462446607422L63.9,101.448200777439L66.26666666666667,97.24756557775127L68.63333333333334,95.8277731728749L71,89.77459076959718L73.36666666666667,91.33565792047226L75.73333333333333,86.06371330948863L78.10000000000001,80.58896391558072L80.46666666666667,75.3605945106394L82.83333333333334,68.15866925031663L85.2,63.070850868613704L87.56666666666668,56.20701993222792L89.93333333333332,50.06822260639234L92.3,49.2499936704219L94.66666666666666,48.53763263577761L97.03333333333333,48.317203968830626L99.39999999999999,44.9919140956782L101.76666666666667,41.74071660156096L104.13333333333333,38.412406855319716L106.5,38.31365813957808L108.86666666666667,37.333520462092736L111.23333333333333,35.518177341620856L113.60000000000001,35.90359416523063L115.96666666666667,36.00744386042217L118.33333333333334,36.273855736022654L120.7,35.42903061955178L123.06666666666668,36.36435219463294L125.43333333333332,38.87873498970072L127.8,38.509053318305945L130.16666666666666,38.847296805762966L132.53333333333333,39.163750626804585L134.9,38.41386122353907L137.26666666666668,37.94443642405852L139.63333333333333,37.744694653200554L142,37.718489307789355L144.36666666666665,40.37894514718138L146.73333333333335,39.210862571705206L149.1,40.430307940668456L151.46666666666667,40.51265921355886L153.83333333333331,40.44129677630423L156.20000000000002,41.51927689085602L158.56666666666666,41.865946627677715L160.93333333333334,42.835556707990975L163.29999999999998,43.92397062910371L165.66666666666669,44.88015554030406L168.03333333333333,44.963576112268385L170.4,45.85981833581809L172.76666666666665,47.15260582235268L175.13333333333335,48.468479768436026L177.5,48.94399652957969L179.86666666666665,49.91586317348512L182.23333333333335,50.00337948398612L184.6,51.34287943599713L186.96666666666667,51.71515972946936L189.33333333333331,51.47969974240573L191.70000000000002,50.774191915755935L194.06666666666666,51.808405492165946L196.43333333333334,51.949891165172616L198.79999999999998,51.95576206879352L201.16666666666669,52.94226568243822L203.53333333333333,52.54276018918705L205.9,53.09318041313381L208.26666666666665,51.734037062577556L210.63333333333335,51.99541289153825L213,53.28970241631944L215.36666666666665,53.39984558156657L217.73333333333335,52.09396244842725L220.1,53.00887594317746L222.46666666666667,54.39854784068673L224.83333333333331,56.06416269336468L227.20000000000002,56.66412074681716L229.56666666666666,55.25744843075633L231.93333333333334,56.558935649335126L234.29999999999998,55.45754099317773L236.66666666666669,55.229145796468146L239.03333333333333,55.60846648178716L241.4,55.800291719211444L243.76666666666665,54.78273705850441L246.13333333333335,54.33139279967783L248.5,54.521998063839916L250.86666666666665,53.7349673319563L253.23333333333335,53.211388114017524L255.6,52.978362638307985"
                     style="fill: none;"
                     fill="none"
                     id="path119" />
                </g>
                <g
                   id="g125">
                  <path
                     stroke="rgb(255, 112, 67)"
                     stroke-width="2px"
                     d="M23.666666666666664,132.94365451335906L26.03333333333333,132.9300383836031L28.400000000000002,130.18381430713498L30.76666666666667,129.6813901696135L33.13333333333333,128.63469332103347L35.5,125.57137515094814L37.86666666666667,124.02640966004148L40.233333333333334,122.15161736029347L42.6,120.36871682626263L44.96666666666666,120.50195803950255L47.33333333333333,120.21451869426636L49.699999999999996,119.0308906516131L52.06666666666666,117.92103964054468L54.43333333333334,116.9650203788504L56.800000000000004,116.06868275516955L59.16666666666667,114.74421651504136L61.53333333333334,112.41358316837626L63.9,110.64423720080228L66.26666666666667,112.19880852807084L68.63333333333334,112.68405194639806L71,112.53921648088578L73.36666666666667,112.2813251467707L75.73333333333333,112.66119970700416L78.10000000000001,113.34233567299181L80.46666666666667,112.76606047099449L82.83333333333334,109.87682671236819L85.2,108.09245332054722L87.56666666666668,105.11772041733207L89.93333333333332,101.67118451214729L92.3,100.78818450728883L94.66666666666666,99.00113690013183L97.03333333333333,97.56099885514479L99.39999999999999,95.1552252205453L101.76666666666667,93.32488318398119L104.13333333333333,90.75451501787464L106.5,82.0264566700285L108.86666666666667,77.13677549916133L111.23333333333333,67.80800661770155L113.60000000000001,58.03902987048734L115.96666666666667,51.77222028970871L118.33333333333334,48.77891688822132L120.7,44.54407532773325L123.06666666666668,42.413944585673335L125.43333333333332,45.36670350576077L127.8,45.08296689712816L130.16666666666666,43.538583048031654L132.53333333333333,41.53060939295284L134.9,41.477721714872075L137.26666666666668,40.052902674594975L139.63333333333333,38.670419125497745L142,38.488282587968655L144.36666666666665,37.52037120988288L146.73333333333335,37.460300728859295L149.1,36.63266145538114L151.46666666666667,35.9486219129011L153.83333333333331,35.4032505250598L156.20000000000002,35.18312550882246L158.56666666666666,35.75299019634576L160.93333333333334,36.0901117600194L163.29999999999998,36.17837789280364L165.66666666666669,36.47817690505477L168.03333333333333,36.70938993056947L170.4,36.67624179220397L172.76666666666665,36.668585384465445L175.13333333333335,36.75964114461971L177.5,36.96683594104428L179.86666666666665,36.94743226836192L182.23333333333335,37.04140762609285L184.6,36.91100569320943L186.96666666666667,37.50451517434851"
                     style="fill: none;"
                     fill="none"
                     id="path123" />
                </g>
              </g>
            </g>
          </g>
          <g
             opacity="0.2"
             id="g149">
            <g
               id="g147">
              <g
                 id="g145">
                <g
                   id="g135">
                  <path
                     stroke="rgb(204, 51, 17)"
                     stroke-width="2px"
                     d="M23.666666666666664,135.3507157087326L23.666666666666664,134.2681242465973L23.666666666666664,131.7296755552292L23.666666666666664,136.24821798801423L23.666666666666664,130.05467648506163L26.03333333333333,127.7917619228363L28.400000000000002,128.06165385246277L30.76666666666667,123.7732830286026L33.13333333333333,122.27031481266022L35.5,121.67727699279786L37.86666666666667,120.16989092826843L40.233333333333334,113.97241325378418L42.6,115.32142305374146L44.96666666666666,110.19345092773438L47.33333333333333,109.56633710861206L49.699999999999996,102.06272950172423L52.06666666666666,106.21515917778015L54.43333333333334,109.09436573982238L56.800000000000004,101.9629098892212L59.16666666666667,95.09476799964905L61.53333333333334,92.14662432670593L63.9,95.9666331768036L66.26666666666667,96.40966572761535L68.63333333333334,85.67921228408814L71,81.36405639648437L73.36666666666667,73.89370784759521L75.73333333333333,77.62984972000122L78.10000000000001,80.44482135772705L80.46666666666667,78.58771228790283L82.83333333333334,83.47686595916748L85.2,77.30881090164185L87.56666666666668,80.74669494628907L89.93333333333332,73.77775735855103L92.3,74.02590379714965L94.66666666666666,80.59166707992554L97.03333333333333,70.92731561660767L99.39999999999999,64.24675617218017L101.76666666666667,67.68371505737305L104.13333333333333,66.69481296539307L106.5,64.42247705459594L108.86666666666667,64.86219091415406L111.23333333333333,63.92604837417602L113.60000000000001,56.1239580154419L115.96666666666667,62.8882061958313L118.33333333333334,62.048933792114255L120.7,54.775202846527094L123.06666666666668,54.427495670318606L125.43333333333332,54.31684999465942L127.8,54.80612354278564L130.16666666666666,55.61467895507812L132.53333333333333,53.845510959625244L134.9,53.29429416656494L137.26666666666668,54.906889533996576L139.63333333333333,56.36891307830811L142,50.79154262542724L144.36666666666665,54.4100619316101L146.73333333333335,52.532794570922846L149.1,54.98377113342285L151.46666666666667,53.03327188491821L153.83333333333331,51.64699258804322L156.20000000000002,55.297069168090815L158.56666666666666,54.50424995422364L160.93333333333334,57.39553451538086L163.29999999999998,62.20966539382934L165.66666666666669,63.63054056167603L168.03333333333333,69.5597092628479L170.4,70.13475952148437L172.76666666666665,72.17439661026L175.13333333333335,68.14731330871582L177.5,73.41171674728393L179.86666666666665,71.16886711120605L182.23333333333335,70.47828226089477L184.6,63.933678817749026L186.96666666666667,63.23610858917236L189.33333333333331,60.22787199020385L191.70000000000002,58.80967044830322L194.06666666666666,57.555026912689215L196.43333333333334,57.213473320007324L198.79999999999998,53.17552576065063L201.16666666666669,53.53368129730225L203.53333333333333,53.47577819824218L205.9,51.32284727096558L208.26666666666665,53.45601034164429L210.63333333333335,54.34827146530151L213,52.73777256011962L215.36666666666665,54.55685672760009L217.73333333333335,54.12585973739624L220.1,55.87038793563843L222.46666666666667,54.691955471038824L224.83333333333331,55.69278278350831L227.20000000000002,57.920091438293454L229.56666666666666,56.60179014205933L231.93333333333334,58.33525037765503L234.29999999999998,58.46043548583984L236.66666666666669,62.49717779159546L239.03333333333333,63.173681545257566L241.4,65.91576929092408L243.76666666666665,68.19260368347167L246.13333333333335,68.65390176773072L248.5,68.02571849822998L250.86666666666665,68.13706016540527L253.23333333333335,66.21222772598267L255.6,63.63661775588989L257.96666666666664,60.70891246795654"
                     style="fill: none;"
                     fill="none"
                     id="path133" />
                </g>
                <g
                   id="g139">
                  <path
                     stroke="rgb(0, 119, 187)"
                     stroke-width="2px"
                     d="M23.666666666666664,137.90337705612183L26.03333333333333,133.66374049186706L28.400000000000002,132.83237013816833L30.76666666666667,128.00122141838074L33.13333333333333,118.72258081436158L35.5,121.37926743030548L37.86666666666667,120.64729018211365L40.233333333333334,117.45809578895569L42.6,117.065132188797L44.96666666666666,115.94079608917237L47.33333333333333,114.81661701202393L49.699999999999996,113.5985300064087L52.06666666666666,113.64244961738586L54.43333333333334,106.51793246269226L56.800000000000004,103.63239831924439L59.16666666666667,104.40791110992431L61.53333333333334,104.76619820594787L63.9,94.68970942497253L66.26666666666667,90.94725270271302L68.63333333333334,93.69821434020996L71,80.6951491355896L73.36666666666667,93.67720727920532L75.73333333333333,78.15590047836304L78.10000000000001,72.37690467834473L80.46666666666667,67.5180775642395L82.83333333333334,57.355812072753906L85.2,55.43913631439209L87.56666666666668,45.911284065246576L89.93333333333332,40.860032272338884L92.3,48.022650718688965L94.66666666666666,47.46909132003785L97.03333333333333,47.98656101226808L99.39999999999999,40.00397968292236L101.76666666666667,36.863920593261724L104.13333333333333,33.4199423789978L106.5,38.16553506851196L108.86666666666667,35.863313961029036L111.23333333333333,32.79516267776489L113.60000000000001,36.48171939849854L115.96666666666667,36.163218402862555L118.33333333333334,36.67347354888918L120.7,34.16179294586183L123.06666666666668,37.767334556579584L125.43333333333332,42.65030918121337L127.8,37.95453081130981L130.16666666666666,39.354662036895746L132.53333333333333,39.638431358337385L134.9,37.28902711868287L137.26666666666668,37.240299224853516L139.63333333333333,37.44508199691771L142,37.67918128967287L144.36666666666665,44.36962890625L146.73333333333335,37.4587387084961L149.1,42.25947599411009L151.46666666666667,40.63618612289429L153.83333333333331,40.334253120422346L156.20000000000002,43.13624706268311L158.56666666666666,42.38595123291017L160.93333333333334,44.28997182846069L163.29999999999998,45.556591510772705L165.66666666666669,46.314432907104475L168.03333333333333,45.088706970214844L170.4,47.20418167114258L172.76666666666665,49.09178705215456L175.13333333333335,50.44229068756104L177.5,49.65727167129515L179.86666666666665,51.373663139343265L182.23333333333335,50.134653949737555L184.6,53.35212936401368L186.96666666666667,52.27358016967773L189.33333333333331,51.1265097618103L191.70000000000002,49.71593017578127L194.06666666666666,53.35972585678101L196.43333333333334,52.162119674682614L198.79999999999998,51.96456842422485L201.16666666666669,54.422021102905276L203.53333333333333,51.9435019493103L205.9,53.91881074905396L208.26666666666665,49.695322036743164L210.63333333333335,52.38747663497925L213,55.23113670349122L215.36666666666665,53.56506032943726L217.73333333333335,50.135137748718265L220.1,54.38124618530273L222.46666666666667,56.48305568695068L224.83333333333331,58.562584972381586L227.20000000000002,57.56405782699585L229.56666666666666,53.14743995666504L231.93333333333334,58.511166477203375L234.29999999999998,53.80544900894165L236.66666666666669,54.88655300140381L239.03333333333333,56.17744750976563L241.4,56.0880295753479L243.76666666666665,53.25640506744385L246.13333333333335,53.654376411437994L248.5,54.807905960083005L250.86666666666665,52.55442123413086L253.23333333333335,52.42601928710937L255.6,52.628824424743655"
                     style="fill: none;"
                     fill="none"
                     id="path137" />
                </g>
                <g
                   id="g143">
                  <path
                     stroke="rgb(255, 112, 67)"
                     stroke-width="2px"
                     d="M23.666666666666664,132.94365451335906L26.03333333333333,132.92186870574952L28.400000000000002,127.54743919372558L30.76666666666667,129.09053938388826L33.13333333333333,127.26812591552735L35.5,121.33370332717895L37.86666666666667,121.8170842885971L40.233333333333334,119.41815218925476L42.6,117.73928484916686L44.96666666666666,120.69980571269988L47.33333333333333,119.78596673011779L49.699999999999996,117.26188983917237L52.06666666666666,116.25988698005676L54.43333333333334,115.53286442756652L56.800000000000004,114.72522993087769L59.16666666666667,112.75845127105713L61.53333333333334,108.91861939430237L63.9,107.99066748619079L66.26666666666667,114.53042869567871L68.63333333333334,113.41187272071839L71,112.32197122573852L73.36666666666667,111.89449663162232L75.73333333333333,113.2310040473938L78.10000000000001,114.36403155326843L80.46666666666667,111.901651763916L82.83333333333334,105.54298839569093L85.2,105.41589779853821L87.56666666666668,100.65562562942505L89.93333333333332,96.50138382911682L92.3,99.46368498802185L94.66666666666666,96.32056608200072L97.03333333333333,95.4007920742035L99.39999999999999,91.54656505584717L101.76666666666667,90.57937026023865L104.13333333333333,86.89896287918091L106.5,68.93436937332153L108.86666666666667,69.80225381851196L111.23333333333333,53.8148533821106L113.60000000000001,43.38556480407715L115.96666666666667,42.37200593948364L118.33333333333334,44.28896179199219L120.7,38.19181299209595L123.06666666666668,39.2187484741211L125.43333333333332,49.795841884613054L127.8,44.65736198425293L130.16666666666666,41.222007274627686L132.53333333333333,38.518648910522444L134.9,41.39839019775391L137.26666666666668,37.9156741142273L139.63333333333333,36.596693801879866L142,38.21507778167725L144.36666666666665,36.06850414276121L146.73333333333335,37.37019500732421L149.1,35.39120254516601L151.46666666666667,34.92256259918213L153.83333333333331,34.58519344329832L156.20000000000002,34.852937984466536L158.56666666666666,36.60778722763061L160.93333333333334,36.59579410552979L163.29999999999998,36.310777091979986L165.66666666666669,36.9278754234314L168.03333333333333,37.05620946884156L170.4,36.62651958465577L172.76666666666665,36.65710077285766L175.13333333333335,36.89622478485106L177.5,37.27762813568117L179.86666666666665,36.918326759338385L182.23333333333335,37.18237066268921L184.6,36.715402793884294L186.96666666666667,38.394779396057146"
                     style="fill: none;"
                     fill="none"
                     id="path141" />
                </g>
              </g>
            </g>
          </g>
        </g>
      </g>
      <g
         transform="translate(46, 178)"
         clip-path="url(#clip_1)"
         id="g218">
        <clipPath
           id="clip_1">
          <rect
             width="284"
             height="22"
             id="rect155" />
        </clipPath>
        <g
           id="g216">
          <g
             id="g184">
            <line
               x1="0"
               y1="0"
               x2="0"
               y2="5"
               style="visibility: inherit;"
               fill="rgb(0, 0, 0)"
               stroke="rgb(204, 204, 204)"
               stroke-width="1px"
               id="line158" />
            <line
               x1="23.666666666666664"
               y1="0"
               x2="23.666666666666664"
               y2="5"
               style="visibility: inherit;"
               fill="rgb(0, 0, 0)"
               stroke="rgb(204, 204, 204)"
               stroke-width="1px"
               id="line160" />
            <line
               x1="47.33333333333333"
               y1="0"
               x2="47.33333333333333"
               y2="5"
               style="visibility: inherit;"
               fill="rgb(0, 0, 0)"
               stroke="rgb(204, 204, 204)"
               stroke-width="1px"
               id="line162" />
            <line
               x1="71"
               y1="0"
               x2="71"
               y2="5"
               style="visibility: inherit;"
               fill="rgb(0, 0, 0)"
               stroke="rgb(204, 204, 204)"
               stroke-width="1px"
               id="line164" />
            <line
               x1="94.66666666666666"
               y1="0"
               x2="94.66666666666666"
               y2="5"
               style="visibility: inherit;"
               fill="rgb(0, 0, 0)"
               stroke="rgb(204, 204, 204)"
               stroke-width="1px"
               id="line166" />
            <line
               x1="118.33333333333334"
               y1="0"
               x2="118.33333333333334"
               y2="5"
               style="visibility: inherit;"
               fill="rgb(0, 0, 0)"
               stroke="rgb(204, 204, 204)"
               stroke-width="1px"
               id="line168" />
            <line
               x1="142"
               y1="0"
               x2="142"
               y2="5"
               style="visibility: inherit;"
               fill="rgb(0, 0, 0)"
               stroke="rgb(204, 204, 204)"
               stroke-width="1px"
               id="line170" />
            <line
               x1="165.66666666666669"
               y1="0"
               x2="165.66666666666669"
               y2="5"
               style="visibility: inherit;"
               fill="rgb(0, 0, 0)"
               stroke="rgb(204, 204, 204)"
               stroke-width="1px"
               id="line172" />
            <line
               x1="189.33333333333331"
               y1="0"
               x2="189.33333333333331"
               y2="5"
               style="visibility: inherit;"
               fill="rgb(0, 0, 0)"
               stroke="rgb(204, 204, 204)"
               stroke-width="1px"
               id="line174" />
            <line
               x1="213"
               y1="0"
               x2="213"
               y2="5"
               style="visibility: inherit;"
               fill="rgb(0, 0, 0)"
               stroke="rgb(204, 204, 204)"
               stroke-width="1px"
               id="line176" />
            <line
               x1="236.66666666666669"
               y1="0"
               x2="236.66666666666669"
               y2="5"
               style="visibility: inherit;"
               fill="rgb(0, 0, 0)"
               stroke="rgb(204, 204, 204)"
               stroke-width="1px"
               id="line178" />
            <line
               x1="260.3333333333333"
               y1="0"
               x2="260.3333333333333"
               y2="5"
               style="visibility: inherit;"
               fill="rgb(0, 0, 0)"
               stroke="rgb(204, 204, 204)"
               stroke-width="1px"
               id="line180" />
            <line
               x1="284"
               y1="0"
               x2="284"
               y2="5"
               style="visibility: inherit;"
               fill="rgb(0, 0, 0)"
               stroke="rgb(204, 204, 204)"
               stroke-width="1px"
               id="line182" />
          </g>
          <g
             transform="translate(0, 8)"
             id="g212">
            <text
               x="0"
               y="0"
               dx="0em"
               dy="0.95em"
               style="text-anchor: middle; visibility: hidden; font-family: &quot;Helvetica Neue&quot;, sans-serif; font-size: 12px; font-weight: 200;"
               fill="rgb(50, 49, 63)"
               stroke="none"
               stroke-width="1px"
               id="text186">-10</text>
            <text
               x="23.666666666666664"
               y="0"
               dx="0em"
               dy="0.95em"
               style="text-anchor: middle; visibility: inherit; font-family: &quot;Helvetica Neue&quot;, sans-serif; font-size: 12px; font-weight: 200;"
               fill="rgb(50, 49, 63)"
               stroke="none"
               stroke-width="1px"
               id="text188">0</text>
            <text
               x="47.33333333333333"
               y="0"
               dx="0em"
               dy="0.95em"
               style="text-anchor: middle; visibility: inherit; font-family: &quot;Helvetica Neue&quot;, sans-serif; font-size: 12px; font-weight: 200;"
               fill="rgb(50, 49, 63)"
               stroke="none"
               stroke-width="1px"
               id="text190">10</text>
            <text
               x="71"
               y="0"
               dx="0em"
               dy="0.95em"
               style="text-anchor: middle; visibility: inherit; font-family: &quot;Helvetica Neue&quot;, sans-serif; font-size: 12px; font-weight: 200;"
               fill="rgb(50, 49, 63)"
               stroke="none"
               stroke-width="1px"
               id="text192">20</text>
            <text
               x="94.66666666666666"
               y="0"
               dx="0em"
               dy="0.95em"
               style="text-anchor: middle; visibility: inherit; font-family: &quot;Helvetica Neue&quot;, sans-serif; font-size: 12px; font-weight: 200;"
               fill="rgb(50, 49, 63)"
               stroke="none"
               stroke-width="1px"
               id="text194">30</text>
            <text
               x="118.33333333333334"
               y="0"
               dx="0em"
               dy="0.95em"
               style="text-anchor: middle; visibility: inherit; font-family: &quot;Helvetica Neue&quot;, sans-serif; font-size: 12px; font-weight: 200;"
               fill="rgb(50, 49, 63)"
               stroke="none"
               stroke-width="1px"
               id="text196">40</text>
            <text
               x="142"
               y="0"
               dx="0em"
               dy="0.95em"
               style="text-anchor: middle; visibility: inherit; font-family: &quot;Helvetica Neue&quot;, sans-serif; font-size: 12px; font-weight: 200;"
               fill="rgb(50, 49, 63)"
               stroke="none"
               stroke-width="1px"
               id="text198">50</text>
            <text
               x="165.66666666666669"
               y="0"
               dx="0em"
               dy="0.95em"
               style="text-anchor: middle; visibility: inherit; font-family: &quot;Helvetica Neue&quot;, sans-serif; font-size: 12px; font-weight: 200;"
               fill="rgb(50, 49, 63)"
               stroke="none"
               stroke-width="1px"
               id="text200">60</text>
            <text
               x="189.33333333333331"
               y="0"
               dx="0em"
               dy="0.95em"
               style="text-anchor: middle; visibility: inherit; font-family: &quot;Helvetica Neue&quot;, sans-serif; font-size: 12px; font-weight: 200;"
               fill="rgb(50, 49, 63)"
               stroke="none"
               stroke-width="1px"
               id="text202">70</text>
            <text
               x="213"
               y="0"
               dx="0em"
               dy="0.95em"
               style="text-anchor: middle; visibility: inherit; font-family: &quot;Helvetica Neue&quot;, sans-serif; font-size: 12px; font-weight: 200;"
               fill="rgb(50, 49, 63)"
               stroke="none"
               stroke-width="1px"
               id="text204">80</text>
            <text
               x="236.66666666666669"
               y="0"
               dx="0em"
               dy="0.95em"
               style="text-anchor: middle; visibility: inherit; font-family: &quot;Helvetica Neue&quot;, sans-serif; font-size: 12px; font-weight: 200;"
               fill="rgb(50, 49, 63)"
               stroke="none"
               stroke-width="1px"
               id="text206">90</text>
            <text
               x="260.3333333333333"
               y="0"
               dx="0em"
               dy="0.95em"
               style="text-anchor: middle; visibility: inherit; font-family: &quot;Helvetica Neue&quot;, sans-serif; font-size: 12px; font-weight: 200;"
               fill="rgb(50, 49, 63)"
               stroke="none"
               stroke-width="1px"
               id="text208">100</text>
            <text
               x="284"
               y="0"
               dx="0em"
               dy="0.95em"
               style="text-anchor: middle; visibility: hidden; font-family: &quot;Helvetica Neue&quot;, sans-serif; font-size: 12px; font-weight: 200;"
               fill="rgb(50, 49, 63)"
               stroke="none"
               stroke-width="1px"
               id="text210">110</text>
          </g>
          <line
             x1="0"
             y1="0"
             x2="284"
             y2="0"
             fill="rgb(0, 0, 0)"
             stroke="rgb(204, 204, 204)"
             stroke-width="1px"
             id="line214" />
        </g>
      </g>
    </g>
  </g>
</svg>
